<?xml version="1.0" standalone="no"?>
<!DOCTYPE svg PUBLIC "-//W3C//DTD SVG 20010904//EN"
 "http://www.w3.org/TR/2001/REC-SVG-20010904/DTD/svg10.dtd">
<svg version="1.0" xmlns="http://www.w3.org/2000/svg"
 width="852.000000pt" height="852.000000pt" viewBox="0 0 852.000000 852.000000"
 preserveAspectRatio="xMidYMid meet">
<metadata>
Created by potrace 1.14, written by Peter Selinger 2001-2017
</metadata>
<g transform="translate(0.000000,852.000000) scale(0.100000,-0.100000)"
fill="#000000" stroke="none">
<path d="M2922 8507 c-15 -18 -264 -35 -577 -42 -193 -3 -257 -8 -325 -24 -47
-11 -112 -21 -146 -21 -33 0 -83 -7 -110 -15 -27 -8 -62 -15 -79 -15 -16 -1
-48 -8 -70 -16 -22 -9 -61 -21 -86 -27 -25 -7 -52 -17 -60 -24 -8 -6 -31 -14
-51 -18 -21 -4 -42 -13 -49 -21 -6 -7 -26 -16 -45 -20 -18 -3 -38 -12 -45 -20
-6 -8 -18 -14 -26 -14 -8 0 -31 -11 -51 -25 -20 -14 -42 -25 -49 -25 -7 0 -16
-6 -20 -13 -4 -7 -19 -18 -33 -25 -52 -27 -174 -109 -211 -142 -9 -8 -39 -33
-65 -55 -96 -79 -338 -338 -354 -379 -3 -7 -22 -33 -43 -58 -20 -25 -37 -52
-37 -60 0 -8 -9 -23 -21 -34 -11 -10 -32 -42 -45 -70 -13 -29 -31 -57 -39 -64
-8 -7 -15 -17 -15 -22 0 -10 -42 -104 -71 -159 -10 -20 -19 -46 -19 -58 0 -12
-6 -34 -14 -49 -8 -16 -17 -48 -21 -72 -4 -24 -13 -56 -21 -72 -8 -15 -18 -60
-23 -100 -5 -40 -16 -113 -25 -163 -15 -90 -30 -244 -46 -470 -20 -298 -29
-3468 -10 -3770 29 -464 80 -736 185 -990 23 -57 89 -186 117 -228 13 -19 41
-64 62 -99 22 -35 74 -106 115 -158 282 -359 672 -633 1056 -745 131 -38 254
-63 390 -81 66 -8 161 -20 210 -27 136 -18 4082 -17 4215 1 52 7 147 19 210
27 423 52 760 195 1095 466 146 118 329 318 443 486 73 108 88 133 148 253
160 322 214 604 244 1280 11 241 10 2935 -1 3220 -4 107 -10 224 -13 260 -6
60 -9 113 -21 354 -2 49 -11 126 -19 170 -9 45 -20 113 -25 151 -15 103 -64
286 -96 360 -8 17 -16 41 -20 55 -7 26 -73 163 -127 260 -35 64 -83 139 -127
195 -17 22 -38 51 -48 64 -136 180 -383 404 -566 512 -118 70 -133 78 -182
102 -103 52 -290 121 -400 149 -22 5 -62 16 -90 24 -27 8 -93 16 -145 18 -52
2 -106 9 -120 15 -44 19 -178 29 -425 31 -132 2 -258 4 -280 6 -166 14 -198
19 -210 31 -20 19 -2657 20 -2673 0z m195 -812 c27 -19 36 -51 63 -220 49
-303 133 -480 326 -686 63 -68 98 -114 110 -147 26 -69 49 -98 94 -116 80 -32
202 -11 255 44 24 25 29 39 29 79 0 85 -40 101 -107 45 -40 -33 -68 -28 -79
14 -12 44 6 104 42 145 52 60 145 70 231 26 70 -35 179 -178 179 -235 0 -30
17 -12 48 52 40 80 109 156 170 185 91 45 210 21 246 -49 25 -48 30 -110 12
-138 l-17 -25 -42 31 c-39 27 -46 29 -75 19 -39 -13 -60 -67 -43 -111 27 -71
148 -113 257 -89 63 14 92 44 120 122 13 37 44 81 104 148 114 127 148 177
208 296 61 123 99 239 119 370 26 171 33 203 55 230 18 24 27 26 61 22 53 -7
100 -47 169 -143 202 -278 295 -722 218 -1031 -26 -102 -115 -281 -182 -363
-100 -123 -214 -209 -328 -246 -28 -9 -50 -17 -50 -19 0 -1 21 -24 48 -51 26
-27 74 -80 107 -117 l60 -67 63 0 c48 0 64 -4 69 -16 10 -26 -30 -68 -77 -81
-59 -17 -67 -28 -37 -48 23 -15 28 -15 63 0 46 19 64 14 64 -18 0 -52 -106
-155 -178 -174 -35 -9 -94 13 -135 49 -35 31 -38 38 -48 115 -15 130 -71 232
-153 282 -115 71 -332 36 -438 -71 -84 -83 -112 -196 -89 -346 14 -88 44 -151
106 -219 65 -73 148 -113 233 -113 110 0 175 24 247 92 l63 58 91 0 c84 0 94
-2 116 -24 32 -32 52 -105 70 -264 17 -149 26 -176 79 -245 43 -56 41 -77 -6
-77 -60 1 -107 17 -149 54 -24 20 -46 36 -51 36 -11 0 22 -81 68 -165 21 -38
84 -140 142 -225 109 -162 162 -258 193 -349 26 -75 25 -99 -6 -107 -56 -14
-163 47 -246 140 -21 23 -40 38 -44 34 -13 -12 24 -129 63 -198 48 -87 140
-177 228 -223 40 -20 74 -44 78 -52 12 -33 -91 -70 -170 -62 -103 11 -82 -12
101 -109 89 -47 146 -85 181 -120 56 -57 114 -161 114 -206 0 -30 0 -30 -42
-21 -24 4 -89 8 -144 8 l-102 0 -36 56 c-74 114 -163 178 -307 218 -119 33
-190 24 -254 -33 -36 -33 -71 -117 -57 -141 4 -8 39 -36 77 -62 96 -66 108
-94 139 -313 14 -96 30 -247 35 -335 8 -127 18 -189 46 -300 37 -149 46 -280
24 -374 -14 -64 -72 -183 -127 -265 -72 -104 -85 -132 -72 -155 13 -25 44 -35
68 -22 22 12 125 167 170 256 88 175 99 339 38 568 -29 110 -39 170 -46 285
-10 153 -33 364 -51 467 -21 123 -37 154 -118 233 l-76 74 24 19 c27 22 64 23
143 5 81 -20 152 -62 210 -125 59 -64 88 -124 123 -253 60 -214 75 -256 125
-332 57 -87 94 -126 240 -251 271 -232 350 -339 350 -475 0 -69 16 -90 55 -72
39 18 49 56 37 135 -22 143 -118 270 -366 482 -67 57 -136 119 -155 138 l-33
35 63 50 c106 83 220 237 255 346 9 28 54 146 99 261 46 116 108 275 139 355
96 247 116 280 163 280 31 0 83 -51 83 -82 0 -30 -35 -171 -100 -398 -169
-596 -177 -629 -138 -654 12 -7 23 -7 40 3 13 6 104 123 202 259 504 693 511
703 548 716 34 12 74 1 105 -30 21 -21 24 -31 18 -61 -8 -44 -32 -81 -380
-600 -305 -455 -305 -455 -305 -489 0 -31 41 -42 79 -23 14 8 195 140 401 295
206 154 393 292 415 307 55 37 96 36 130 -5 45 -53 25 -89 -115 -208 -47 -40
-159 -137 -250 -215 -91 -79 -219 -189 -285 -245 -66 -56 -144 -122 -172 -146
-54 -46 -66 -77 -41 -102 20 -20 65 -14 284 34 115 25 259 56 319 69 61 13
144 31 185 40 123 28 177 30 200 10 12 -11 20 -31 20 -51 0 -52 -36 -69 -420
-201 -247 -84 -492 -210 -690 -356 -114 -84 -617 -583 -734 -729 -43 -54 -84
-98 -91 -98 -8 0 -35 18 -60 40 -58 50 -160 120 -175 120 -6 0 -26 -11 -43
-24 -18 -14 -63 -36 -102 -51 -113 -42 -266 -47 -1540 -43 -1010 4 -1158 6
-1215 20 -81 20 -177 62 -208 91 -26 24 -23 25 -111 -37 -49 -34 -48 -35 -130
69 -75 95 -527 559 -628 646 -152 129 -396 280 -573 355 -36 15 -186 71 -333
125 -148 53 -277 105 -288 115 -23 21 -25 76 -3 98 8 9 28 16 44 16 16 0 185
-34 377 -75 410 -88 534 -110 557 -102 10 4 16 18 16 36 0 34 -40 71 -506 466
-389 330 -411 354 -367 413 31 42 63 49 114 23 24 -12 224 -156 444 -321 244
-183 408 -300 422 -300 26 0 54 35 46 59 -3 9 -156 241 -340 517 -372 557
-372 557 -315 614 40 40 86 41 127 3 27 -25 134 -170 563 -759 73 -100 139
-188 148 -195 24 -20 68 0 72 34 2 15 -12 82 -32 149 -122 428 -226 822 -226
855 0 43 38 83 79 83 34 0 66 -33 93 -95 32 -74 246 -620 282 -721 20 -54 50
-127 67 -160 48 -98 157 -221 260 -294 21 -16 20 -17 -78 -105 -55 -50 -146
-130 -202 -180 -112 -98 -198 -202 -231 -280 -13 -30 -24 -81 -27 -128 -6 -85
8 -117 52 -117 34 0 42 18 47 101 4 61 11 86 36 130 44 76 142 180 295 312
249 215 286 269 361 532 68 235 109 312 200 373 54 37 145 71 209 78 44 5 56
3 80 -16 15 -12 27 -25 27 -30 0 -4 -25 -27 -56 -50 -122 -92 -149 -191 -189
-705 -11 -143 -21 -209 -50 -320 -34 -130 -36 -148 -32 -245 8 -161 48 -271
166 -451 66 -102 90 -120 129 -98 15 8 28 21 30 30 1 8 -27 60 -63 114 -37 55
-79 125 -95 155 -80 158 -87 313 -24 524 18 60 29 131 39 271 25 323 57 536
88 583 12 18 55 58 95 88 84 64 89 83 44 155 -38 57 -58 75 -107 88 -62 17
-97 13 -197 -19 -221 -70 -299 -169 -386 -482 -50 -180 -70 -228 -99 -228 -17
0 -133 110 -133 126 0 21 116 146 167 180 30 20 50 40 47 46 -7 11 -189 5
-276 -8 -48 -8 -49 7 -8 95 45 95 149 193 270 255 121 62 174 96 165 104 -4 4
-43 7 -88 8 -95 1 -161 22 -155 51 2 10 30 31 65 49 144 72 241 191 298 366
10 32 16 60 12 64 -3 4 -33 -20 -65 -53 -56 -57 -130 -102 -200 -122 -30 -9
-34 -8 -42 15 -8 19 -4 44 16 102 33 99 72 171 200 362 132 199 216 360 188
360 -3 0 -24 -15 -47 -34 -44 -35 -114 -52 -163 -40 -33 8 -30 24 15 79 47 57
61 101 72 230 11 125 24 188 52 245 20 41 26 46 67 52 25 3 69 7 98 7 52 1 55
-1 115 -58 83 -79 151 -106 251 -98 94 7 159 33 217 85 53 47 98 131 118 217
16 67 17 199 2 252 -24 89 -122 178 -230 210 -84 25 -203 22 -268 -6 -95 -42
-166 -148 -179 -266 -3 -33 -10 -74 -16 -92 -12 -42 -68 -90 -113 -99 -53 -10
-136 36 -192 105 -61 74 -56 86 34 86 101 0 111 20 21 45 -25 7 -43 21 -59 46
-28 46 -17 58 58 59 l57 1 55 64 c31 36 80 88 109 117 34 33 49 54 40 57 -198
58 -364 211 -480 441 -116 229 -127 516 -32 835 47 157 111 284 203 403 80
103 147 138 198 102z m1233 -134 c52 -27 80 -74 80 -132 0 -44 -4 -53 -43 -94
-41 -43 -47 -45 -98 -45 -101 0 -155 58 -147 156 5 60 23 85 78 115 45 23 86
24 130 0z m-2052 -394 c49 -59 -8 -151 -77 -125 -55 20 -68 83 -25 117 30 23
86 28 102 8z m2705 -119 c27 -32 22 -85 -12 -119 -32 -32 -47 -35 -86 -17 -27
12 -55 54 -55 82 0 27 22 64 44 75 30 15 88 4 109 -21z m1342 -48 c64 -40 82
-124 42 -195 -42 -75 -146 -100 -207 -49 -41 35 -60 74 -60 124 0 85 56 140
144 140 31 0 60 -7 81 -20z m-3861 -570 c57 -21 77 -106 41 -168 -22 -36 -53
-52 -103 -52 -85 0 -137 93 -100 176 21 45 101 67 162 44z m3614 -395 c47 -39
58 -77 38 -128 -20 -52 -58 -77 -118 -77 -46 0 -71 18 -97 67 -53 104 87 214
177 138z m-2602 -549 c41 -41 42 -55 8 -95 -34 -41 -75 -42 -115 -2 -37 37
-36 52 2 96 39 44 62 44 105 1z m1660 10 c22 -18 28 -32 27 -60 -1 -50 -27
-76 -74 -76 -32 0 -42 6 -64 35 -31 40 -28 63 16 100 38 31 60 32 95 1z
m-3057 -29 c56 -17 71 -39 71 -104 0 -49 -2 -55 -32 -73 -20 -12 -51 -20 -78
-20 -63 0 -99 38 -106 113 -6 59 2 72 53 87 39 12 42 11 92 -3z m1285 -153 c9
-3 16 -13 16 -21 0 -22 -64 -13 -68 10 -4 18 21 23 52 11z m1806 -34 c-6 -11
-17 -20 -25 -20 -8 0 -15 9 -15 20 0 15 7 20 25 20 23 0 24 -2 15 -20z m760
-90 c41 -41 15 -110 -42 -110 -32 0 -68 31 -68 59 0 29 39 71 66 71 13 0 33
-9 44 -20z m-3338 -310 c28 -35 24 -111 -8 -149 -23 -27 -32 -31 -78 -31 -44
0 -56 4 -78 28 -32 35 -42 75 -28 118 16 47 52 65 120 60 41 -3 59 -10 72 -26z
m3337 -216 c27 -34 26 -50 -4 -79 -40 -41 -87 -26 -101 31 -16 64 64 100 105
48z m-3422 -444 c40 -24 56 -54 56 -106 0 -56 -32 -100 -84 -114 -85 -23 -154
32 -154 123 0 43 4 52 37 83 44 40 94 45 145 14z m3793 -401 c37 -14 70 -68
70 -115 0 -46 -27 -101 -63 -128 -33 -24 -116 -25 -152 -2 -64 42 -84 137 -44
202 11 19 21 34 22 34 1 0 20 7 42 15 40 14 77 13 125 -6z m-394 -903 c86 -90
164 -253 143 -299 -14 -29 -56 -60 -74 -53 -23 9 -52 76 -85 199 -17 64 -35
128 -40 143 -26 67 -3 71 56 10z"/>
<path d="M3410 6420 c0 -7 -7 -10 -17 -6 -13 4 -11 0 6 -14 41 -35 71 -21 31
15 -13 12 -20 14 -20 5z"/>
<path d="M3298 6160 c17 -20 15 -27 -10 -35 l-23 -8 23 -4 c13 -3 35 4 50 14
l27 18 -25 3 c-14 2 -32 9 -40 15 -12 9 -13 9 -2 -3z"/>
<path d="M4139 5086 c-63 -13 -129 -57 -129 -85 0 -10 9 -30 20 -44 11 -14 20
-28 20 -32 0 -18 94 -137 140 -177 43 -36 52 -51 57 -86 7 -55 -14 -88 -67
-102 -96 -26 -189 23 -270 140 -9 12 -23 21 -32 19 -13 -4 -14 -10 -3 -52 14
-53 55 -111 105 -145 51 -34 106 -45 185 -37 91 10 143 10 235 0 92 -9 147 4
196 47 62 55 116 160 94 182 -8 8 -26 -6 -61 -47 -74 -83 -119 -107 -206 -107
-83 0 -103 15 -110 84 -5 43 -4 45 63 113 38 37 93 105 123 150 52 81 53 83
37 108 -9 13 -28 32 -42 42 -61 39 -240 54 -355 29z"/>
</g>
</svg>
